<svg width="23" height="20" viewBox="0 0 23 20" fill="none" xmlns="http://www.w3.org/2000/svg">
<path d="M11.4902 4.50049C14.2502 4.50049 16.4902 6.74049 16.4902 9.50049C16.4902 10.1505 16.3602 10.7605 16.1302 11.3305L19.0502 14.2505C20.5602 12.9905 21.7502 11.3605 22.4802 9.50049C20.7502 5.11049 16.4802 2.00049 11.4802 2.00049C10.0802 2.00049 8.74023 2.25049 7.50023 2.70049L9.66023 4.86049C10.2302 4.63049 10.8402 4.50049 11.4902 4.50049ZM1.49023 1.77049L3.77023 4.05049L4.23023 4.51049C2.57023 5.80049 1.27023 7.52049 0.490234 9.50049C2.22023 13.8905 6.49023 17.0005 11.4902 17.0005C13.0402 17.0005 14.5202 16.7005 15.8702 16.1605L16.2902 16.5805L19.2202 19.5005L20.4902 18.2305L2.76023 0.500488L1.49023 1.77049ZM7.02023 7.30049L8.57023 8.85049C8.52023 9.06049 8.49023 9.28049 8.49023 9.50049C8.49023 11.1605 9.83023 12.5005 11.4902 12.5005C11.7102 12.5005 11.9302 12.4705 12.1402 12.4205L13.6902 13.9705C13.0202 14.3005 12.2802 14.5005 11.4902 14.5005C8.73023 14.5005 6.49023 12.2605 6.49023 9.50049C6.49023 8.71049 6.69023 7.97049 7.02023 7.30049ZM11.3302 6.52049L14.4802 9.67049L14.5002 9.51049C14.5002 7.85049 13.1602 6.51049 11.5002 6.51049L11.3302 6.52049Z" fill="#747474"/>
</svg>
